OpenSim_Sub03_EMGStiffKnee_GRF.mot
version=1
nRows=64
nColumns=19
inDegrees=no
endheader
time	lFx	lFy	lFz	lCOPx	lCOPy	lCOPz	rFx	rFy	rFz	rCOPx	rCOPy	rCOPz	lMx	lMy	lMz	rMx	rMy	rMz
0	3.03966643	381.40362882	28.43950495	0.58708966	0	-0.69601333	-6.89766295	385.64848005	-31.17608822	0.62405382	0	-0.36087339	0	-7.39796336	0	0	2.62717110	-0.00000000
0.01000000	4.05286098	381.01639184	28.27614431	0.58729669	0	-0.69607353	-6.65357985	386.42188263	-31.28956087	0.62400561	0	-0.36082265	0	-7.37572768	0	0	2.59247708	-0.00000000
0.02000000	4.75133283	380.67673623	28.16683496	0.58744155	0	-0.69611715	-6.47112291	387.09376862	-31.36841056	0.62398372	0	-0.36081720	0	-7.36123939	0	0	2.58788743	0
0.03000000	5.09346087	380.50017042	28.11076416	0.58745044	0	-0.69612218	-6.39559791	387.48705425	-31.40908751	0.62396626	0	-0.36083542	0	-7.34448930	0	0	2.59736664	-0.00000000
0.04000000	5.24311726	380.50412719	28.06777875	0.58735941	0	-0.69608377	-6.41482492	387.66844977	-31.43471150	0.62396730	0	-0.36081830	0	-7.32832910	0	0	2.60757003	0
0.05000000	5.32453029	380.60533275	28.01672367	0.58717917	0	-0.69600815	-6.46953508	387.74169292	-31.46928695	0.62396595	0	-0.36076909	0	-7.31644780	0	0	2.61772416	0
0.06000000	5.39308039	380.61774095	27.94819312	0.58697903	0	-0.69595306	-6.50454752	387.78449460	-31.52900225	0.62397669	0	-0.36075589	0	-7.31360852	0	0	2.63420188	0.00000000
0.07000000	5.43914767	380.39024329	27.87306569	0.58678714	0	-0.69595254	-6.49579346	387.87000767	-31.60790027	0.62402793	0	-0.36077126	0	-7.32881441	0	0	2.63371170	0
0.08000000	5.44969734	379.94288276	27.80563001	0.58668122	0	-0.69599955	-6.42846298	388.06020272	-31.68396315	0.62400110	0	-0.36076992	0	-7.33688069	0	0	2.62146692	0.00000000
0.09000000	5.43266231	379.40188656	27.77116469	0.58668494	0	-0.69604723	-6.33064881	388.39237889	-31.74086788	0.62401123	0	-0.36074078	0	-7.32541979	0	0	2.60873680	0
0.10000000	5.40341686	378.88684272	27.79416871	0.58671054	0	-0.69602716	-6.25106803	388.81155723	-31.80091076	0.62409334	0	-0.36070575	0	-7.31065896	0	0	2.60007100	-0.00000000
0.11000000	5.33423419	378.51946264	27.86178154	0.58659618	0	-0.69595041	-6.19175822	389.21637133	-31.89342034	0.62414452	0	-0.36066817	0	-7.30022323	0	0	2.59494078	0.00000000
0.12000000	5.23239317	378.35922662	27.92213995	0.58637928	0	-0.69590259	-6.13279582	389.54441064	-32.00512241	0.62414181	0	-0.36064233	0	-7.30626440	0	0	2.59359170	0
0.13000000	5.10859548	378.39392085	27.95229390	0.58616868	0	-0.69591617	-6.07851422	389.74950806	-32.10578891	0.62404998	0	-0.36062247	0	-7.31833853	0	0	2.59920713	-0.00000000
0.14000000	4.97148073	378.53584631	27.95485160	0.58601682	0	-0.69595662	-6.04343604	389.84597485	-32.18714995	0.62393878	0	-0.36059529	0	-7.32243932	0	0	2.60980935	-0.00000000
0.15000000	4.83404816	378.68193091	27.94965918	0.58594616	0	-0.69597760	-6.02373851	389.84493397	-32.22717066	0.62393069	0	-0.36056930	0	-7.31300752	0	0	2.61785945	0.00000000
0.16000000	4.70152634	378.75194819	27.95300960	0.58593972	0	-0.69597982	-6.03435340	389.83791391	-32.23276898	0.62413923	0	-0.36052068	0	-7.31121635	0	0	2.61024834	-0.00000000
0.17000000	4.60131923	378.68627476	27.96264296	0.58591137	0	-0.69598686	-6.08753827	389.80202146	-32.21320067	0.62440943	0	-0.36044757	0	-7.30957085	0	0	2.60293981	0
0.18000000	4.57996417	378.41295678	27.95943353	0.58576594	0	-0.69602547	-6.14744368	389.70121489	-32.19565424	0.62447976	0	-0.36037899	0	-7.30386612	0	0	2.61271451	-0.00000000
0.19000000	4.66040734	378.00219645	27.93428653	0.58556114	0	-0.69606217	-6.18490927	389.51950340	-32.19844152	0.62435711	0	-0.36033880	0	-7.28745124	0	0	2.63142563	-0.00000000
0.20000000	4.83474536	377.56779753	27.87017015	0.58534178	0	-0.69606971	-6.19253814	389.31695656	-32.22526681	0.62420816	0	-0.36030300	0	-7.25960267	0	0	2.64000985	0.00000000
0.21000000	5.05523601	377.19545717	27.78054742	0.58508055	0	-0.69602627	-6.15414797	389.17774872	-32.26798909	0.62418639	0	-0.36025068	0	-7.23180535	0	0	2.63155639	-0.00000000
0.22000000	5.27836934	376.89621102	27.69727777	0.58479102	0	-0.69593529	-6.06047221	389.10374734	-32.28838704	0.62428688	0	-0.36018317	0	-7.21743633	0	0	2.60631081	0
0.23000000	5.46791376	376.67178327	27.64292713	0.58450167	0	-0.69581152	-5.91286773	389.09480269	-32.24835200	0.62441812	0	-0.36014130	0	-7.21476176	0	0	2.58480787	-0.00000000
0.24000000	5.61422705	376.54289712	27.62007355	0.58424423	0	-0.69569762	-5.72332243	389.16864812	-32.16427807	0.62442447	0	-0.36014621	0	-7.21581334	0	0	2.57712690	0.00000000
0.25000000	5.74385252	376.55494052	27.63044927	0.58390550	0	-0.69559932	-5.51415544	389.34447334	-32.09065591	0.62418893	0	-0.36018347	0	-7.21547435	0	0	2.57781765	0
0.26000000	5.86600807	376.72956939	27.66589534	0.58338073	0	-0.69548541	-5.34355652	389.66385228	-32.03844267	0.62370472	0	-0.36021475	0	-7.21330006	0	0	2.59074375	-0.00000000
0.27000000	5.96313089	377.09702621	27.71408449	0.58275321	0	-0.69534698	-5.22993695	390.04029489	-32.00674644	0.62314458	0	-0.36026206	0	-7.20123230	0	0	2.61892306	-0.00000000
0.28000000	6.04822288	377.59780943	27.77055559	0.58202890	0	-0.69517903	-5.15774227	390.32572249	-31.99505775	0.62267537	0	-0.36032366	0	-7.17798796	0	0	2.64086592	-0.00000000
0.29000000	6.16162592	378.05456355	27.81168219	0.58129991	0	-0.69503613	-5.09634011	390.44290746	-32.00468638	0.62240395	0	-0.36038900	0	-7.15359387	0	0	2.63622261	0.00000000
0.30000000	6.29942793	378.38166889	27.82114665	0.58067769	0	-0.69492005	-5.04551299	390.39043431	-32.04049891	0.62219718	0	-0.36044968	0	-7.12892062	0	0	2.61482253	0.00000000
0.31000000	6.41770242	378.60943807	27.80048562	0.58020886	0	-0.69481251	-4.98137035	390.15631638	-32.06808336	0.62195451	0	-0.36052064	0	-7.09327606	0	0	2.59424526	0
0.32000000	6.45763746	378.71164239	27.77552513	0.57982777	0	-0.69467156	-4.89155337	389.84809793	-32.04617390	0.62178365	0	-0.36062140	0	-7.05276685	0	0	2.58895743	0
0.33000000	6.36653670	378.59696828	27.75063499	0.57939785	0	-0.69450571	-4.78700268	389.60515763	-31.97826389	0.62163668	0	-0.36073167	0	-7.02786470	0	0	2.59802736	0
0.34000000	6.14045241	378.27457352	27.73043131	0.57887596	0	-0.69433477	-4.69021942	389.53933565	-31.87604208	0.62147467	0	-0.36080482	0	-7.02647268	0	0	2.60430617	0
0.35000000	5.83951351	377.83601054	27.72179058	0.57837398	0	-0.69417191	-4.61940638	389.63013164	-31.78134371	0.62135601	0	-0.36088557	0	-7.04288612	0	0	2.58945174	-0.00000000
0.36000000	5.55976212	377.38548210	27.72936259	0.57784366	0	-0.69399378	-4.57231833	389.82227337	-31.72416424	0.62116410	0	-0.36098677	0	-7.05358884	0	0	2.56967492	-0.00000000
0.37000000	5.40689053	377.02394314	27.72977543	0.57719784	0	-0.69379466	-4.54298804	390.11015658	-31.69215133	0.62087378	0	-0.36108485	0	-7.03688068	0	0	2.56109375	-0.00000000
0.38000000	5.39808811	376.82020794	27.70525004	0.57644055	0	-0.69357049	-4.53619279	390.50247390	-31.68107841	0.62055911	0	-0.36117006	0	-6.99118299	0	0	2.56406847	-0.00000000
0.39000000	5.51152829	376.79597698	27.65957557	0.57553181	0	-0.69331653	-4.54091505	391.01551924	-31.69335516	0.62031165	0	-0.36123686	0	-6.93402642	0	0	2.56923982	0
0.40000000	5.74473916	376.90978646	27.60509583	0.57449018	0	-0.69305837	-4.56063958	391.53082280	-31.72044034	0.62011189	0	-0.36128417	0	-6.88398257	0	0	2.57191609	0.00000000
0.41000000	6.08292641	377.02378708	27.53363849	0.57336394	0	-0.69279644	-4.58568520	391.94609817	-31.75503574	0.61996316	0	-0.36132836	0	-6.82459519	0	0	2.56928480	0
0.42000000	6.52556652	376.96053358	27.43423050	0.57217261	0	-0.69251228	-4.59204881	392.26832556	-31.77501345	0.61974959	0	-0.36137094	0	-6.76412818	0	0	2.57829295	-0.00000000
0.43000000	7.03786937	376.71348291	27.32327651	0.57100477	0	-0.69221110	-4.57034285	392.47760225	-31.79498005	0.61935276	0	-0.36142017	0	-6.70358229	0	0	2.59924322	0.00000000
0.44000000	7.54553302	376.38180926	27.21324757	0.56994393	0	-0.69192616	-4.51373638	392.62539035	-31.80056319	0.61891749	0	-0.36150256	0	-6.63836887	0	0	2.60733820	0
0.45000000	8.00804891	375.97885067	27.09913124	0.56896230	0	-0.69170695	-4.44126834	392.85319022	-31.76667562	0.61853286	0	-0.36157995	0	-6.57511510	0	0	2.60586573	0.00000000
0.46000000	8.42103052	375.54989862	27.00241169	0.56807698	0	-0.69154479	-4.38612877	393.16908269	-31.71823939	0.61817376	0	-0.36164907	0	-6.52226127	0	0	2.60974624	0.00000000
0.47000000	8.76284239	375.10656410	26.93084873	0.56725026	0	-0.69137282	-4.34144214	393.47514691	-31.68431772	0.61785402	0	-0.36172512	0	-6.48172344	0	0	2.60980893	0
0.48000000	9.02924972	374.68393402	26.86275845	0.56640588	0	-0.69117070	-4.29484109	393.73200663	-31.66332787	0.61761657	0	-0.36178086	0	-6.43790066	0	0	2.59535873	0.00000000
0.49000000	9.24810556	374.27364433	26.77559902	0.56554383	0	-0.69095821	-4.24418686	393.87016360	-31.65428196	0.61738623	0	-0.36182975	0	-6.39835644	0	0	2.57452964	0
0.50000000	9.45171634	373.93117319	26.68861549	0.56480214	0	-0.69074381	-4.19717049	393.84452853	-31.66319313	0.61710126	0	-0.36190400	0	-6.36443829	0	0	2.55366566	0
0.51000000	9.63081807	373.65752827	26.62130658	0.56424455	0	-0.69053216	-4.14434362	393.69044037	-31.67458060	0.61680567	0	-0.36199460	0	-6.32555609	0	0	2.53686966	0
0.52000000	9.77857193	373.39558423	26.56627458	0.56375565	0	-0.69030308	-4.07875092	393.52167002	-31.67023636	0.61654508	0	-0.36209983	0	-6.28788763	0	0	2.52392532	0
0.53000000	9.88885001	373.06376591	26.49407909	0.56313776	0	-0.69004074	-4.03302190	393.46784113	-31.63994276	0.61631708	0	-0.36221828	0	-6.25588951	0	0	2.51931501	0
0.54000000	9.95596455	372.56302349	26.37813720	0.56240705	0	-0.68973278	-4.02086398	393.66557529	-31.59094386	0.61621413	0	-0.36231032	0	-6.22839803	0	0	2.51272838	0.00000000
0.55000000	10.00651994	371.96891087	26.24882989	0.56162407	0	-0.68939769	-4.03480774	394.08537939	-31.55230444	0.61616514	0	-0.36235648	0	-6.20714768	0	0	2.50506501	0
0.56000000	10.06743293	371.44066070	26.14487283	0.56087541	0	-0.68906116	-4.05829120	394.59778052	-31.54025890	0.61601418	0	-0.36239776	0	-6.17647709	0	0	2.50604454	0.00000000
0.57000000	10.12467642	370.98938889	26.07952694	0.56013851	0	-0.68871959	-4.07781563	395.15459566	-31.56155061	0.61583032	0	-0.36248167	0	-6.13282203	0	0	2.49652076	0
0.58000000	10.13505495	370.60450390	26.02666770	0.55935739	0	-0.68840221	-4.09034299	395.78000552	-31.61113784	0.61565444	0	-0.36258679	0	-6.08180695	0	0	2.47815337	0.00000000
0.59000000	10.06232167	370.27737805	25.97661978	0.55848332	0	-0.68812747	-4.09033473	396.44965742	-31.68687341	0.61537098	0	-0.36265714	0	-6.02560848	0	0	2.45825747	0
0.60000000	9.93772745	369.99636332	25.92449991	0.55763762	0	-0.68787749	-4.09763571	397.18960094	-31.77208274	0.61499492	0	-0.36270417	0	-5.97790225	0	0	2.45774246	0
0.61000000	9.84694327	369.78867705	25.85651990	0.55697488	0	-0.68765546	-4.14183192	398.02187798	-31.84172243	0.61464361	0	-0.36276029	0	-5.93243055	0	0	2.47584083	0
0.62000000	9.84656343	369.66387006	25.77186282	0.55648462	0	-0.68746232	-4.20712216	398.86975174	-31.88341585	0.61429893	0	-0.36283095	0	-5.87045366	0	0	2.49828671	-0.00000000
0.63000000	9.92213393	369.58755123	25.66988136	0.55602214	0	-0.68728117	-4.26368659	399.68903779	-31.90900648	0.61395230	0	-0.36291111	0	-5.79135215	0	0	2.51269204	0
